<svg width="1254" height="1254" viewBox="0 0 1254 1254" fill="none" xmlns="http://www.w3.org/2000/svg">
  <path fill="#0359FC" d="
M664.455933,422.554230 
	C661.884460,426.393463 658.639954,427.221252 654.418945,427.211670 
	C588.755859,427.062408 523.092163,427.058929 457.429047,427.205933 
	C454.974640,427.211426 451.909668,428.457825 450.166443,430.177429 
	C430.829926,449.251404 411.737122,468.572174 392.463562,487.710571 
	C390.013519,490.143402 389.081665,492.616760 389.086395,496.041901 
	C389.189423,570.371338 389.163666,644.700928 389.312195,719.030151 
	C389.316559,721.206970 390.377014,723.945068 391.898590,725.469971 
	C411.202209,744.815857 430.614166,764.055847 450.223846,783.090698 
	C452.073303,784.885925 455.444794,785.939087 458.112457,785.944519 
	C523.608337,786.077759 589.104675,786.057251 654.600647,785.915833 
	C658.610840,785.907166 661.259094,787.079529 664.028503,790.033020 
	C688.417236,816.043030 713.008362,841.863281 737.527161,867.751404 
	C742.666016,873.177246 747.753906,878.651306 753.928223,885.236938 
	C750.996521,885.236938 749.303345,885.236694 747.610107,885.236938 
	C682.946777,885.246826 618.283508,885.258057 553.620178,885.266357 
	C508.955688,885.272095 464.291016,885.321594 419.627197,885.149902 
	C417.152527,885.140381 414.053375,883.920227 412.307526,882.190796 
	C379.396637,849.589478 346.645569,816.826843 313.863037,784.096008 
	C306.670624,776.914978 299.361938,769.843323 292.389526,762.454468 
	C290.780060,760.748901 289.477631,757.947510 289.474365,755.648315 
	C289.334137,656.486694 289.341248,557.324890 289.459015,458.163177 
	C289.461639,455.949799 290.332642,453.123474 291.834900,451.615448 
	C331.704926,411.591888 371.737366,371.730133 411.637360,331.736267 
	C414.329803,329.037506 417.014069,327.924957 420.794739,327.928894 
	C519.622742,328.032349 618.450806,328.035248 717.278870,328.054688 
	C729.051636,328.057007 740.824402,328.055023 753.951111,328.055023 
	C723.642395,360.059845 694.175171,391.176056 664.455933,422.554230 
z"/>
  <path fill="#02CCA4" d="
M800.201721,694.217590 
	C837.830811,666.399963 875.172668,638.795837 912.978333,610.848877 
	C878.922546,586.489441 845.284058,562.637451 811.872742,538.471252 
	C778.412048,514.269470 745.178406,489.753937 711.258423,464.946747 
	C729.397278,443.898285 747.272766,423.155518 765.319824,402.213623 
	C859.955505,471.770996 954.265137,541.088745 1048.789429,610.564270 
	C954.385498,680.002319 859.996277,749.429504 765.328247,819.061707 
	C747.625000,799.301025 729.860657,779.472107 711.709351,759.211243 
	C741.206848,737.547546 770.560669,715.989319 800.201721,694.217590 
z"/>
</svg>
