<svg width="1024" height="1024" viewBox="0 0 1024 1024" fill="none" xmlns="http://www.w3.org/2000/svg">
<g transform="translate(100,100) scale(0.6570972886762361)">
  <path fill="#FEFEFE" d="
M1.000002,1043.000000 
	C1.000000,766.970642 1.000000,490.941254 1.354734,214.762085 
	C2.154161,213.787338 2.835578,213.008087 3.005172,212.130005 
	C4.116392,206.376602 4.863913,200.542603 6.197432,194.844269 
	C12.034151,169.903061 21.817495,146.466400 34.854931,124.525307 
	C47.879444,102.605965 63.988754,83.149864 82.901436,65.824654 
	C95.938797,53.881596 109.987183,43.453068 124.959473,34.401382 
	C135.691376,27.913284 147.438690,22.969843 159.058395,18.116371 
	C177.083527,10.587394 195.751251,5.097723 215.271667,2.891985 
	C215.910873,2.819757 216.426682,1.655310 217.000000,1.000001 
	C489.362701,1.000000 761.725403,1.000000 1034.729736,1.159128 
	C1035.580811,1.212175 1035.790405,1.106093 1036.000000,1.000006 
	C1037.388916,1.000000 1038.777832,1.000000 1040.378052,1.386989 
	C1041.469971,2.190764 1042.310059,2.796446 1043.237305,2.995054 
	C1052.304443,4.937032 1061.487549,6.425987 1070.442749,8.783561 
	C1089.893921,13.904220 1108.666992,20.931246 1125.845825,31.541035 
	C1137.871216,38.967987 1150.080078,46.299763 1161.143799,55.022530 
	C1171.276001,63.010937 1180.530640,72.315994 1189.167114,81.942375 
	C1198.337646,92.164062 1206.932495,103.029716 1214.708374,114.349365 
	C1233.122925,141.156052 1245.657837,170.594208 1252.009888,202.592072 
	C1252.519287,205.158096 1253.980835,207.535141 1255.000000,210.000000 
	C1255.000000,488.362701 1255.000000,766.725403 1254.642578,1045.253174 
	C1253.876709,1045.924316 1253.175903,1046.390991 1253.101807,1046.941772 
	C1250.430786,1066.811401 1244.223633,1085.709229 1235.772949,1103.698730 
	C1229.124512,1117.851440 1221.273071,1131.516602 1213.015259,1144.814087 
	C1204.505615,1158.516602 1193.980225,1170.823364 1182.238770,1181.916504 
	C1173.552368,1190.123413 1164.666260,1198.205078 1155.209717,1205.485962 
	C1146.498169,1212.193115 1137.276733,1218.444580 1127.608032,1223.648560 
	C1116.035645,1229.877319 1103.907471,1235.164673 1091.734253,1240.163696 
	C1076.166748,1246.556396 1059.941772,1250.820801 1043.213379,1253.052979 
	C1042.403442,1253.161133 1041.734497,1254.326782 1041.000000,1255.000000 
	C767.637329,1255.000000 494.274597,1255.000000 220.336609,1254.611572 
	C213.650528,1253.145630 207.390137,1252.589844 201.457840,1250.889282 
	C185.590714,1246.341187 169.385300,1242.451050 154.218918,1236.129272 
	C139.499908,1229.994141 125.602882,1221.658691 111.923866,1213.337891 
	C102.974152,1207.893555 94.668945,1201.192993 86.787384,1194.246826 
	C79.412033,1187.746826 72.789246,1180.349854 66.179100,1173.036865 
	C59.908024,1166.099121 53.835865,1158.949219 48.115486,1151.552856 
	C37.759716,1138.163086 29.685482,1123.364990 22.581367,1108.048218 
	C13.227802,1087.881226 6.066412,1067.014282 2.923182,1044.895630 
	C2.822465,1044.186890 1.664892,1043.628540 1.000002,1043.000000 
M664.707947,422.292267 
	C694.175171,391.176056 723.642395,360.059845 753.951111,328.055023 
	C740.824402,328.055023 729.051636,328.057007 717.278870,328.054688 
	C618.450806,328.035248 519.622742,328.032349 420.794739,327.928894 
	C417.014069,327.924957 414.329803,329.037506 411.637360,331.736267 
	C371.737366,371.730133 331.704926,411.591888 291.834900,451.615448 
	C290.332642,453.123474 289.461639,455.949799 289.459015,458.163177 
	C289.341248,557.324890 289.334137,656.486694 289.474365,755.648315 
	C289.477631,757.947510 290.780060,760.748901 292.389526,762.454468 
	C299.361938,769.843323 306.670624,776.914978 313.863037,784.096008 
	C346.645569,816.826843 379.396637,849.589478 412.307526,882.190796 
	C414.053375,883.920227 417.152527,885.140381 419.627197,885.149902 
	C464.291016,885.321594 508.955688,885.272095 553.620178,885.266357 
	C618.283508,885.258057 682.946777,885.246826 747.610107,885.236938 
	C749.303345,885.236694 750.996521,885.236938 753.928223,885.236938 
	C747.753906,878.651306 742.666016,873.177246 737.527161,867.751404 
	C713.008362,841.863281 688.417236,816.043030 664.028503,790.033020 
	C661.259094,787.079529 658.610840,785.907166 654.600647,785.915833 
	C589.104675,786.057251 523.608337,786.077759 458.112457,785.944519 
	C455.444794,785.939087 452.073303,784.885925 450.223846,783.090698 
	C430.614166,764.055847 411.202209,744.815857 391.898590,725.469971 
	C390.377014,723.945068 389.316559,721.206970 389.312195,719.030151 
	C389.163666,644.700928 389.189423,570.371338 389.086395,496.041901 
	C389.081665,492.616760 390.013519,490.143402 392.463562,487.710571 
	C411.737122,468.572174 430.829926,449.251404 450.166443,430.177429 
	C451.909668,428.457825 454.974640,427.211426 457.429047,427.205933 
	C523.092163,427.058929 588.755859,427.062408 654.418945,427.211670 
	C658.639954,427.221252 661.884460,426.393463 664.707947,422.292267 
M799.914490,694.431091 
	C770.560669,715.989319 741.206848,737.547546 711.709351,759.211243 
	C729.860657,779.472107 747.625000,799.301025 765.328247,819.061707 
	C859.996277,749.429504 954.385498,680.002319 1048.789429,610.564270 
	C954.265137,541.088745 859.955505,471.770996 765.319824,402.213623 
	C747.272766,423.155518 729.397278,443.898285 711.258423,464.946747 
	C745.178406,489.753937 778.412048,514.269470 811.872742,538.471252 
	C845.284058,562.637451 878.922546,586.489441 912.978333,610.848877 
	C875.172668,638.795837 837.830811,666.399963 799.914490,694.431091 
z"/>
  <path fill="#0359FC" d="
M664.455933,422.554230 
	C661.884460,426.393463 658.639954,427.221252 654.418945,427.211670 
	C588.755859,427.062408 523.092163,427.058929 457.429047,427.205933 
	C454.974640,427.211426 451.909668,428.457825 450.166443,430.177429 
	C430.829926,449.251404 411.737122,468.572174 392.463562,487.710571 
	C390.013519,490.143402 389.081665,492.616760 389.086395,496.041901 
	C389.189423,570.371338 389.163666,644.700928 389.312195,719.030151 
	C389.316559,721.206970 390.377014,723.945068 391.898590,725.469971 
	C411.202209,744.815857 430.614166,764.055847 450.223846,783.090698 
	C452.073303,784.885925 455.444794,785.939087 458.112457,785.944519 
	C523.608337,786.077759 589.104675,786.057251 654.600647,785.915833 
	C658.610840,785.907166 661.259094,787.079529 664.028503,790.033020 
	C688.417236,816.043030 713.008362,841.863281 737.527161,867.751404 
	C742.666016,873.177246 747.753906,878.651306 753.928223,885.236938 
	C750.996521,885.236938 749.303345,885.236694 747.610107,885.236938 
	C682.946777,885.246826 618.283508,885.258057 553.620178,885.266357 
	C508.955688,885.272095 464.291016,885.321594 419.627197,885.149902 
	C417.152527,885.140381 414.053375,883.920227 412.307526,882.190796 
	C379.396637,849.589478 346.645569,816.826843 313.863037,784.096008 
	C306.670624,776.914978 299.361938,769.843323 292.389526,762.454468 
	C290.780060,760.748901 289.477631,757.947510 289.474365,755.648315 
	C289.334137,656.486694 289.341248,557.324890 289.459015,458.163177 
	C289.461639,455.949799 290.332642,453.123474 291.834900,451.615448 
	C331.704926,411.591888 371.737366,371.730133 411.637360,331.736267 
	C414.329803,329.037506 417.014069,327.924957 420.794739,327.928894 
	C519.622742,328.032349 618.450806,328.035248 717.278870,328.054688 
	C729.051636,328.057007 740.824402,328.055023 753.951111,328.055023 
	C723.642395,360.059845 694.175171,391.176056 664.455933,422.554230 
z"/>
  <path fill="#02CCA4" d="
M800.201721,694.217590 
	C837.830811,666.399963 875.172668,638.795837 912.978333,610.848877 
	C878.922546,586.489441 845.284058,562.637451 811.872742,538.471252 
	C778.412048,514.269470 745.178406,489.753937 711.258423,464.946747 
	C729.397278,443.898285 747.272766,423.155518 765.319824,402.213623 
	C859.955505,471.770996 954.265137,541.088745 1048.789429,610.564270 
	C954.385498,680.002319 859.996277,749.429504 765.328247,819.061707 
	C747.625000,799.301025 729.860657,779.472107 711.709351,759.211243 
	C741.206848,737.547546 770.560669,715.989319 800.201721,694.217590 
z"/>
</g>
</svg>
